<?xml version="1.0" encoding="UTF-8" standalone="no"?>
<svg
   xmlns:dc="http://purl.org/dc/elements/1.1/"
   xmlns:cc="http://creativecommons.org/ns#"
   xmlns:rdf="http://www.w3.org/1999/02/22-rdf-syntax-ns#"
   xmlns:svg="http://www.w3.org/2000/svg"
   xmlns="http://www.w3.org/2000/svg"
   xmlns:xlink="http://www.w3.org/1999/xlink"
   xmlns:sodipodi="http://sodipodi.sourceforge.net/DTD/sodipodi-0.dtd"
   xmlns:inkscape="http://www.inkscape.org/namespaces/inkscape"
   viewBox="0 0 268.54496 355.30703"
   version="1.1"
   id="svg1457"
   sodipodi:docname="strawberry.svg"
   width="268.54495"
   height="355.30704"
   inkscape:version="1.0.2 (e86c870879, 2021-01-15)">
  <metadata
     id="metadata1461">
    <rdf:RDF>
      <cc:Work
         rdf:about="">
        <dc:format>image/svg+xml</dc:format>
        <dc:type
           rdf:resource="http://purl.org/dc/dcmitype/StillImage" />
        <dc:title></dc:title>
      </cc:Work>
    </rdf:RDF>
  </metadata>
  <sodipodi:namedview
     pagecolor="#ffffff"
     bordercolor="#666666"
     borderopacity="1"
     objecttolerance="10"
     gridtolerance="10"
     guidetolerance="10"
     inkscape:pageopacity="0"
     inkscape:pageshadow="2"
     inkscape:window-width="1916"
     inkscape:window-height="1041"
     id="namedview1459"
     showgrid="false"
     fit-margin-top="0"
     fit-margin-left="0"
     fit-margin-right="0"
     fit-margin-bottom="0"
     inkscape:zoom="2.4122551"
     inkscape:cx="105.45927"
     inkscape:cy="151.22301"
     inkscape:window-x="0"
     inkscape:window-y="18"
     inkscape:window-maximized="0"
     inkscape:current-layer="g1455"
     inkscape:document-rotation="0" />
  <defs
     id="defs1211">
    <filter
       id="o">
      <feGaussianBlur
         stdDeviation="4.74191"
         id="feGaussianBlur1166" />
    </filter>
    <linearGradient
       id="b">
      <stop
         stop-color="#55860d"
         offset="0"
         id="stop1169" />
      <stop
         stop-color="#96c622"
         offset="1"
         id="stop1171" />
    </linearGradient>
    <linearGradient
       id="c">
      <stop
         stop-color="#fff"
         stop-opacity=".72535"
         offset="0"
         id="stop1174" />
      <stop
         stop-color="#fff"
         stop-opacity="0"
         offset="1"
         id="stop1176" />
    </linearGradient>
    <linearGradient
       id="a"
       x1="427.23999"
       x2="438.25"
       y1="606.38"
       y2="573.63"
       gradientUnits="userSpaceOnUse">
      <stop
         stop-color="#fff"
         offset="0"
         id="stop1179" />
      <stop
         stop-color="#b7230e"
         offset="1"
         id="stop1181" />
    </linearGradient>
    <linearGradient
       id="m"
       x1="594.41998"
       x2="516.73999"
       y1="292.04001"
       y2="349.04001"
       gradientUnits="userSpaceOnUse">
      <stop
         stop-color="#fff"
         offset="0"
         id="stop1184" />
      <stop
         stop-color="#fff"
         stop-opacity="0"
         offset="1"
         id="stop1186" />
    </linearGradient>
    <linearGradient
       id="k"
       x1="488.87"
       x2="502.13"
       gradientUnits="userSpaceOnUse">
      <stop
         stop-color="#3e6f05"
         offset="0"
         id="stop1189" />
      <stop
         stop-color="#3e6f05"
         stop-opacity="0"
         offset="1"
         id="stop1191" />
    </linearGradient>
    <linearGradient
       id="n"
       x1="594.13"
       x2="555.12"
       y1="384.14999"
       y2="372.19"
       gradientUnits="userSpaceOnUse"
       xlink:href="#c" />
    <linearGradient
       id="l"
       x1="501.23999"
       x2="499.39999"
       y1="262.88"
       y2="281.88"
       gradientUnits="userSpaceOnUse"
       xlink:href="#c" />
    <radialGradient
       id="j"
       cx="457.41"
       cy="654.56"
       r="121.08"
       gradientTransform="matrix(1.0728,0.19777,-0.21697,1.177,79.371,-485.33)"
       gradientUnits="userSpaceOnUse">
      <stop
         stop-color="#9e230e"
         offset="0"
         id="stop1196" />
      <stop
         stop-color="#9e230e"
         stop-opacity="0"
         offset="1"
         id="stop1198" />
    </radialGradient>
    <radialGradient
       id="i"
       cx="484.70001"
       cy="523.56"
       r="121.08"
       gradientTransform="matrix(0.99422,-0.10738,0.084597,0.78325,-46.33,177.61)"
       gradientUnits="userSpaceOnUse">
      <stop
         stop-opacity=".44014"
         offset="0"
         id="stop1201" />
      <stop
         stop-opacity="0"
         offset="1"
         id="stop1203" />
    </radialGradient>
    <radialGradient
       id="h"
       cx="426.44"
       cy="173.03999"
       r="20.493999"
       gradientTransform="matrix(0.46955,-0.25263,0.73626,1.3685,154.72,112.03)"
       gradientUnits="userSpaceOnUse"
       xlink:href="#b" />
    <radialGradient
       id="g"
       cx="426.44"
       cy="173.03999"
       r="20.493999"
       gradientTransform="matrix(0.43361,0.31029,-0.90432,1.2637,448.99,-78.326)"
       gradientUnits="userSpaceOnUse"
       xlink:href="#b" />
    <radialGradient
       id="f"
       cx="445.26001"
       cy="232.67999"
       r="78.919998"
       gradientTransform="matrix(1.0286,-0.051834,0.0066596,0.13215,-14.264,243.06)"
       gradientUnits="userSpaceOnUse"
       xlink:href="#b" />
    <radialGradient
       id="e"
       cx="434.89999"
       cy="172.50999"
       r="20.493999"
       gradientTransform="matrix(0.3732,-0.38763,1.3265,1.1827,148.28,236.06)"
       gradientUnits="userSpaceOnUse"
       xlink:href="#b" />
    <radialGradient
       id="d"
       cx="536.46002"
       cy="254.61"
       r="80.140999"
       gradientTransform="matrix(1.1449,-0.031137,0.004227,0.15543,-99.314,231.74)"
       gradientUnits="userSpaceOnUse"
       xlink:href="#b" />
    <linearGradient
       inkscape:collect="always"
       xlink:href="#a"
       id="linearGradient1463"
       gradientUnits="userSpaceOnUse"
       x1="427.23999"
       y1="606.38"
       x2="438.25"
       y2="573.63" />
    <linearGradient
       inkscape:collect="always"
       xlink:href="#a"
       id="linearGradient1465"
       gradientUnits="userSpaceOnUse"
       x1="427.23999"
       y1="606.38"
       x2="438.25"
       y2="573.63" />
    <linearGradient
       inkscape:collect="always"
       xlink:href="#a"
       id="linearGradient1467"
       gradientUnits="userSpaceOnUse"
       x1="427.23999"
       y1="606.38"
       x2="438.25"
       y2="573.63" />
    <linearGradient
       inkscape:collect="always"
       xlink:href="#a"
       id="linearGradient1469"
       gradientUnits="userSpaceOnUse"
       x1="427.23999"
       y1="606.38"
       x2="438.25"
       y2="573.63" />
    <linearGradient
       inkscape:collect="always"
       xlink:href="#a"
       id="linearGradient1471"
       gradientUnits="userSpaceOnUse"
       x1="427.23999"
       y1="606.38"
       x2="438.25"
       y2="573.63" />
    <linearGradient
       inkscape:collect="always"
       xlink:href="#a"
       id="linearGradient1473"
       gradientUnits="userSpaceOnUse"
       x1="427.23999"
       y1="606.38"
       x2="438.25"
       y2="573.63" />
    <linearGradient
       inkscape:collect="always"
       xlink:href="#a"
       id="linearGradient1475"
       gradientUnits="userSpaceOnUse"
       x1="427.23999"
       y1="606.38"
       x2="438.25"
       y2="573.63" />
    <linearGradient
       inkscape:collect="always"
       xlink:href="#a"
       id="linearGradient1477"
       gradientUnits="userSpaceOnUse"
       x1="427.23999"
       y1="606.38"
       x2="438.25"
       y2="573.63" />
    <linearGradient
       inkscape:collect="always"
       xlink:href="#a"
       id="linearGradient1479"
       gradientUnits="userSpaceOnUse"
       x1="427.23999"
       y1="606.38"
       x2="438.25"
       y2="573.63" />
    <linearGradient
       inkscape:collect="always"
       xlink:href="#a"
       id="linearGradient1481"
       gradientUnits="userSpaceOnUse"
       x1="427.23999"
       y1="606.38"
       x2="438.25"
       y2="573.63" />
    <linearGradient
       inkscape:collect="always"
       xlink:href="#a"
       id="linearGradient1483"
       gradientUnits="userSpaceOnUse"
       x1="427.23999"
       y1="606.38"
       x2="438.25"
       y2="573.63" />
    <linearGradient
       inkscape:collect="always"
       xlink:href="#a"
       id="linearGradient1485"
       gradientUnits="userSpaceOnUse"
       x1="427.23999"
       y1="606.38"
       x2="438.25"
       y2="573.63" />
    <linearGradient
       inkscape:collect="always"
       xlink:href="#a"
       id="linearGradient1487"
       gradientUnits="userSpaceOnUse"
       x1="427.23999"
       y1="606.38"
       x2="438.25"
       y2="573.63" />
    <linearGradient
       inkscape:collect="always"
       xlink:href="#a"
       id="linearGradient1489"
       gradientUnits="userSpaceOnUse"
       x1="427.23999"
       y1="606.38"
       x2="438.25"
       y2="573.63" />
    <linearGradient
       inkscape:collect="always"
       xlink:href="#a"
       id="linearGradient1491"
       gradientUnits="userSpaceOnUse"
       x1="427.23999"
       y1="606.38"
       x2="438.25"
       y2="573.63" />
    <linearGradient
       inkscape:collect="always"
       xlink:href="#a"
       id="linearGradient1493"
       gradientUnits="userSpaceOnUse"
       x1="427.23999"
       y1="606.38"
       x2="438.25"
       y2="573.63" />
    <linearGradient
       inkscape:collect="always"
       xlink:href="#a"
       id="linearGradient1495"
       gradientUnits="userSpaceOnUse"
       x1="427.23999"
       y1="606.38"
       x2="438.25"
       y2="573.63" />
    <linearGradient
       inkscape:collect="always"
       xlink:href="#a"
       id="linearGradient1497"
       gradientUnits="userSpaceOnUse"
       x1="427.23999"
       y1="606.38"
       x2="438.25"
       y2="573.63" />
    <linearGradient
       inkscape:collect="always"
       xlink:href="#a"
       id="linearGradient1499"
       gradientUnits="userSpaceOnUse"
       x1="427.23999"
       y1="606.38"
       x2="438.25"
       y2="573.63" />
    <linearGradient
       inkscape:collect="always"
       xlink:href="#a"
       id="linearGradient1501"
       gradientUnits="userSpaceOnUse"
       x1="427.23999"
       y1="606.38"
       x2="438.25"
       y2="573.63" />
    <linearGradient
       inkscape:collect="always"
       xlink:href="#a"
       id="linearGradient1503"
       gradientUnits="userSpaceOnUse"
       x1="427.23999"
       y1="606.38"
       x2="438.25"
       y2="573.63" />
  </defs>
  <g
     transform="translate(-360.12166,-163.79271)"
     id="g1455">
    <g
       transform="matrix(0.99957313,0.02923471,-0.02923471,0.99957313,9.5608196,-8.7853944)"
       id="g1453">
      <path
         d="m 490.83,164.94 14.617,-7.0711 1.5386,85.56 31.542,11.314 c 0,0 6.1546,7.7782 2.308,6.364 -3.8466,-1.4142 -86.165,-4.2426 -86.165,-4.2426 l 35.389,-16.971 c 0,0 12.309,-53.033 0.76933,-74.953 z"
         fill="#96c622"
         fill-rule="evenodd"
         id="path1215" />
      <path
         d="m 551.69,260.19 c -59.941,3.3864 -96.911,-19.609 -134.76,-5.3108 -16.735,6.322 -35.489,24.992 -43.15,41.158 -8.9806,18.952 -10.899,49.49 -5.3108,69.704 6.4339,23.274 31.783,46.553 46.469,65.721 17.462,22.792 34.991,61.684 61.074,73.687 11.218,5.1625 30.298,5.2152 41.158,-0.66384 22.199,-12.017 35.248,-47.434 47.133,-69.704 16.193,-30.343 42.105,-71.837 43.15,-106.22 0.56819,-18.696 -6.2253,-46.337 -19.915,-59.082 -8.1314,-7.5703 -24.755,-9.9205 -35.848,-9.2938 z"
         fill="#d2230e"
         fill-rule="evenodd"
         id="path1217" />
      <path
         d="m 554.33,256.15 c -59.941,3.3864 -96.911,-19.609 -134.76,-5.3108 -16.735,6.322 -35.489,24.992 -43.15,41.158 -8.9806,18.952 -10.899,49.49 -5.3108,69.704 6.4339,23.274 31.783,46.553 46.469,65.721 17.462,22.792 34.991,61.684 61.074,73.687 11.218,5.1625 30.298,5.2152 41.158,-0.66384 22.199,-12.017 35.248,-47.434 47.133,-69.704 16.193,-30.343 42.105,-71.837 43.15,-106.22 0.56819,-18.696 -6.2253,-46.337 -19.915,-59.082 -8.1314,-7.5703 -24.755,-9.9205 -35.848,-9.2938 z"
         fill="url(#j)"
         fill-rule="evenodd"
         id="path1219"
         style="fill:url(#j)" />
      <path
         d="m 552.5,264.78 c -59.941,3.3864 -96.911,-19.609 -134.76,-5.3108 -16.735,6.322 -35.489,24.992 -43.15,41.158 -8.9806,18.952 -10.899,49.49 -5.3108,69.704 6.4339,23.274 31.783,46.553 46.469,65.721 17.462,22.792 34.991,61.684 61.074,73.687 11.218,5.1625 30.298,5.2152 41.158,-0.66384 22.199,-12.017 35.248,-47.434 47.133,-69.704 16.193,-30.343 42.105,-71.837 43.15,-106.22 0.5682,-18.696 -6.2253,-46.337 -19.915,-59.082 -8.1313,-7.5703 -24.755,-9.9205 -35.848,-9.2938 z"
         fill="url(#n)"
         fill-rule="evenodd"
         opacity="0.90141"
         id="path1221"
         style="fill:url(#n)" />
      <path
         transform="matrix(0.56066,0.13192,-0.15685,0.66658,313.68,-111.77)"
         d="m 434,571.25 c -2.2405,0 -4.2172,1.0747 -5.5938,2.4062 -1.3766,1.3315 -2.3373,2.9495 -3.125,4.75 -1.5754,3.6009 -2.4062,8.0648 -2.4062,12.969 0,4.9042 0.83085,9.3678 2.4062,12.969 0.7877,1.8005 1.7485,3.4185 3.125,4.75 1.3765,1.3315 3.3532,2.4062 5.5938,2.4062 2.2406,0 4.2172,-1.0747 5.5938,-2.4062 1.3766,-1.3315 2.3373,-2.9495 3.125,-4.75 1.5754,-3.6009 2.4062,-8.0648 2.4062,-12.969 0,-4.9042 -0.83085,-9.3678 -2.4062,-12.969 -0.7877,-1.8005 -1.7485,-3.4185 -3.125,-4.75 C 438.2173,572.3247 436.2406,571.25 434,571.25 Z"
         fill="url(#a)"
         id="path1223"
         style="fill:url(#linearGradient1463)" />
      <path
         transform="matrix(0.56066,0.13192,-0.15685,0.66658,313.53,-111.38)"
         d="m 441,591.36 a 7,16 0 1 1 -14,0 7,16 0 1 1 14,0 z"
         fill="#d2230e"
         id="path1225" />
      <path
         transform="matrix(0.49058,0.11543,-0.13724,0.58326,332.52,-55.53)"
         d="m 441,591.36 a 7,16 0 1 1 -14,0 7,16 0 1 1 14,0 z"
         fill="#e2973a"
         id="path1227" />
      <path
         transform="matrix(4.5877,-1.3487,0.1004,0.65826,-1949.7,636.36)"
         d="m 513.97,590.85 a 0.216775,2.60136 0 1 1 -0.43355,0 0.216775,2.60136 0 1 1 0.43355,0 z"
         fill="#ffffff"
         id="path1229" />
      <path
         transform="matrix(4.2629,-3.2192,0.23478,0.75827,-1867.3,1552.1)"
         d="m 513.97,590.85 a 0.216775,2.60136 0 1 1 -0.43355,0 0.216775,2.60136 0 1 1 0.43355,0 z"
         fill="#ce5c00"
         id="path1231" />
      <path
         transform="matrix(0.70787,0,0,0.70787,190.16,-35.521)"
         d="m 434,571.25 c -2.2405,0 -4.2172,1.0747 -5.5938,2.4062 -1.3766,1.3315 -2.3373,2.9495 -3.125,4.75 -1.5754,3.6009 -2.4062,8.0648 -2.4062,12.969 0,4.9042 0.83085,9.3678 2.4062,12.969 0.7877,1.8005 1.7485,3.4185 3.125,4.75 1.3765,1.3315 3.3532,2.4062 5.5938,2.4062 2.2406,0 4.2172,-1.0747 5.5938,-2.4062 1.3766,-1.3315 2.3373,-2.9495 3.125,-4.75 1.5754,-3.6009 2.4062,-8.0648 2.4062,-12.969 0,-4.9042 -0.83085,-9.3678 -2.4062,-12.969 -0.7877,-1.8005 -1.7485,-3.4185 -3.125,-4.75 C 438.2173,572.3247 436.2406,571.25 434,571.25 Z"
         fill="url(#a)"
         id="path1233"
         style="fill:url(#linearGradient1465)" />
      <path
         transform="matrix(0.70787,0,0,0.70787,190.09,-35.086)"
         d="m 441,591.36 a 7,16 0 1 1 -14,0 7,16 0 1 1 14,0 z"
         fill="#d2230e"
         id="path1235" />
      <path
         transform="matrix(0.61938,0,0,0.61938,228.53,16.614)"
         d="m 441,591.36 a 7,16 0 1 1 -14,0 7,16 0 1 1 14,0 z"
         fill="#e2973a"
         id="path1237" />
      <path
         transform="matrix(5.1087,-2.4433,0.30541,0.63859,-2307,1253.2)"
         d="m 513.97,590.85 a 0.216775,2.60136 0 1 1 -0.43355,0 0.216775,2.60136 0 1 1 0.43355,0 z"
         fill="#ffffff"
         id="path1239" />
      <path
         transform="matrix(4.1936,-4.2485,0.49432,0.70741,-1950.6,2155.1)"
         d="m 513.97,590.85 a 0.216775,2.60136 0 1 1 -0.43355,0 0.216775,2.60136 0 1 1 0.43355,0 z"
         fill="#ce5c00"
         id="path1241" />
      <path
         transform="matrix(0.56783,-0.11567,0.13251,0.65052,115.35,41.77)"
         d="m 434,571.25 c -2.2405,0 -4.2172,1.0747 -5.5938,2.4062 -1.3766,1.3315 -2.3373,2.9495 -3.125,4.75 -1.5754,3.6009 -2.4062,8.0648 -2.4062,12.969 0,4.9042 0.83085,9.3678 2.4062,12.969 0.7877,1.8005 1.7485,3.4185 3.125,4.75 1.3765,1.3315 3.3532,2.4062 5.5938,2.4062 2.2406,0 4.2172,-1.0747 5.5938,-2.4062 1.3766,-1.3315 2.3373,-2.9495 3.125,-4.75 1.5754,-3.6009 2.4062,-8.0648 2.4062,-12.969 0,-4.9042 -0.83085,-9.3678 -2.4062,-12.969 -0.7877,-1.8005 -1.7485,-3.4185 -3.125,-4.75 C 438.2173,572.3247 436.2406,571.25 434,571.25 Z"
         fill="url(#a)"
         id="path1243"
         style="fill:url(#linearGradient1467)" />
      <path
         transform="matrix(0.56783,-0.11567,0.13251,0.65052,115.38,42.18)"
         d="m 441,591.36 a 7,16 0 1 1 -14,0 7,16 0 1 1 14,0 z"
         fill="#d2230e"
         id="path1245" />
      <path
         transform="matrix(0.49685,-0.10121,0.11595,0.5692,155.89,83.412)"
         d="m 441,591.36 a 7,16 0 1 1 -14,0 7,16 0 1 1 14,0 z"
         fill="#e2973a"
         id="path1247" />
      <path
         transform="matrix(3.6406,-3.0801,0.36453,0.53695,-1646.5,1634.1)"
         d="m 513.97,590.85 a 0.216775,2.60136 0 1 1 -0.43355,0 0.216775,2.60136 0 1 1 0.43355,0 z"
         fill="#ffffff"
         id="path1249" />
      <path
         transform="matrix(2.5686,-4.5896,0.52895,0.56932,-1191.8,2404.8)"
         d="m 513.97,590.85 a 0.216775,2.60136 0 1 1 -0.43355,0 0.216775,2.60136 0 1 1 0.43355,0 z"
         fill="#ce5c00"
         id="path1251" />
      <path
         transform="matrix(0.68381,-0.12759,0.13458,0.64829,96.705,92.167)"
         d="m 434,571.25 c -2.2405,0 -4.2172,1.0747 -5.5938,2.4062 -1.3766,1.3315 -2.3373,2.9495 -3.125,4.75 -1.5754,3.6009 -2.4062,8.0648 -2.4062,12.969 0,4.9042 0.83085,9.3678 2.4062,12.969 0.7877,1.8005 1.7485,3.4185 3.125,4.75 1.3765,1.3315 3.3532,2.4062 5.5938,2.4062 2.2406,0 4.2172,-1.0747 5.5938,-2.4062 1.3766,-1.3315 2.3373,-2.9495 3.125,-4.75 1.5754,-3.6009 2.4062,-8.0648 2.4062,-12.969 0,-4.9042 -0.83085,-9.3678 -2.4062,-12.969 -0.7877,-1.8005 -1.7485,-3.4185 -3.125,-4.75 C 438.2173,572.3247 436.2406,571.25 434,571.25 Z"
         fill="url(#a)"
         id="path1253"
         style="fill:url(#linearGradient1469)" />
      <path
         transform="matrix(0.68381,-0.12759,0.13458,0.64829,96.729,92.576)"
         d="m 441,591.36 a 7,16 0 1 1 -14,0 7,16 0 1 1 14,0 z"
         fill="#d2230e"
         id="path1255" />
      <path
         transform="matrix(0.59833,-0.11164,0.11775,0.56726,143.68,133)"
         d="m 441,591.36 a 7,16 0 1 1 -14,0 7,16 0 1 1 14,0 z"
         fill="#e2973a"
         id="path1257" />
      <path
         transform="matrix(4.4706,-3.1585,0.41644,0.5298,-2070.6,1722.5)"
         d="m 513.97,590.85 a 0.216775,2.60136 0 1 1 -0.43355,0 0.216775,2.60136 0 1 1 0.43355,0 z"
         fill="#ffffff"
         id="path1259" />
      <path
         transform="matrix(3.2434,-4.6468,0.61201,0.55878,-1554.8,2484.3)"
         d="m 513.97,590.85 a 0.216775,2.60136 0 1 1 -0.43355,0 0.216775,2.60136 0 1 1 0.43355,0 z"
         fill="#ce5c00"
         id="path1261" />
      <path
         transform="matrix(0.77528,0,0,0.63908,161.75,89.227)"
         d="m 434,571.25 c -2.2405,0 -4.2172,1.0747 -5.5938,2.4062 -1.3766,1.3315 -2.3373,2.9495 -3.125,4.75 -1.5754,3.6009 -2.4062,8.0648 -2.4062,12.969 0,4.9042 0.83085,9.3678 2.4062,12.969 0.7877,1.8005 1.7485,3.4185 3.125,4.75 1.3765,1.3315 3.3532,2.4062 5.5938,2.4062 2.2406,0 4.2172,-1.0747 5.5938,-2.4062 1.3766,-1.3315 2.3373,-2.9495 3.125,-4.75 1.5754,-3.6009 2.4062,-8.0648 2.4062,-12.969 0,-4.9042 -0.83085,-9.3678 -2.4062,-12.969 -0.7877,-1.8005 -1.7485,-3.4185 -3.125,-4.75 C 438.2173,572.3247 436.2406,571.25 434,571.25 Z"
         fill="url(#a)"
         id="path1263"
         style="fill:url(#linearGradient1471)" />
      <path
         transform="matrix(0.77528,0,0,0.63908,161.68,89.62)"
         d="m 441,591.36 a 7,16 0 1 1 -14,0 7,16 0 1 1 14,0 z"
         fill="#d2230e"
         id="path1265" />
      <path
         transform="matrix(0.67837,0,0,0.5592,203.77,136.3)"
         d="m 441,591.36 a 7,16 0 1 1 -14,0 7,16 0 1 1 14,0 z"
         fill="#e2973a"
         id="path1267" />
      <path
         transform="matrix(5.5953,-2.2059,0.3345,0.57654,-2573.2,1252.7)"
         d="m 513.97,590.85 a 0.216775,2.60136 0 1 1 -0.43355,0 0.216775,2.60136 0 1 1 0.43355,0 z"
         fill="#ffffff"
         id="path1269" />
      <path
         transform="matrix(4.593,-3.8357,0.5414,0.63867,-2182.9,2067)"
         d="m 513.97,590.85 a 0.216775,2.60136 0 1 1 -0.43355,0 0.216775,2.60136 0 1 1 0.43355,0 z"
         fill="#ce5c00"
         id="path1271" />
      <path
         transform="matrix(0.63662,0.12664,-0.14331,0.56255,342.73,30.061)"
         d="m 434,571.25 c -2.2405,0 -4.2172,1.0747 -5.5938,2.4062 -1.3766,1.3315 -2.3373,2.9495 -3.125,4.75 -1.5754,3.6009 -2.4062,8.0648 -2.4062,12.969 0,4.9042 0.83085,9.3678 2.4062,12.969 0.7877,1.8005 1.7485,3.4185 3.125,4.75 1.3765,1.3315 3.3532,2.4062 5.5938,2.4062 2.2406,0 4.2172,-1.0747 5.5938,-2.4062 1.3766,-1.3315 2.3373,-2.9495 3.125,-4.75 1.5754,-3.6009 2.4062,-8.0648 2.4062,-12.969 0,-4.9042 -0.83085,-9.3678 -2.4062,-12.969 -0.7877,-1.8005 -1.7485,-3.4185 -3.125,-4.75 C 438.2173,572.3247 436.2406,571.25 434,571.25 Z"
         fill="url(#a)"
         id="path1273"
         style="fill:url(#linearGradient1473)" />
      <path
         transform="matrix(0.63662,0.12664,-0.14331,0.56255,342.59,30.395)"
         d="m 441,591.36 a 7,16 0 1 1 -14,0 7,16 0 1 1 14,0 z"
         fill="#d2230e"
         id="path1275" />
      <path
         transform="matrix(0.55704,0.11081,-0.1254,0.49223,366.69,78.358)"
         d="m 441,591.36 a 7,16 0 1 1 -14,0 7,16 0 1 1 14,0 z"
         fill="#e2973a"
         id="path1277" />
      <path
         transform="matrix(5.0892,-1.0278,0.14538,0.56213,-2164,607.44)"
         d="m 513.97,590.85 a 0.216775,2.60136 0 1 1 -0.43355,0 0.216775,2.60136 0 1 1 0.43355,0 z"
         fill="#ffffff"
         id="path1279" />
      <path
         transform="matrix(4.6317,-2.6261,0.30135,0.65062,-2026.1,1388)"
         d="m 513.97,590.85 a 0.216775,2.60136 0 1 1 -0.43355,0 0.216775,2.60136 0 1 1 0.43355,0 z"
         fill="#ce5c00"
         id="path1281" />
      <path
         transform="matrix(0.62535,0.21323,-0.19314,0.56645,400.14,-66.735)"
         d="m 434,571.25 c -2.2405,0 -4.2172,1.0747 -5.5938,2.4062 -1.3766,1.3315 -2.3373,2.9495 -3.125,4.75 -1.5754,3.6009 -2.4062,8.0648 -2.4062,12.969 0,4.9042 0.83085,9.3678 2.4062,12.969 0.7877,1.8005 1.7485,3.4185 3.125,4.75 1.3765,1.3315 3.3532,2.4062 5.5938,2.4062 2.2406,0 4.2172,-1.0747 5.5938,-2.4062 1.3766,-1.3315 2.3373,-2.9495 3.125,-4.75 1.5754,-3.6009 2.4062,-8.0648 2.4062,-12.969 0,-4.9042 -0.83085,-9.3678 -2.4062,-12.969 -0.7877,-1.8005 -1.7485,-3.4185 -3.125,-4.75 C 438.2173,572.3247 436.2406,571.25 434,571.25 Z"
         fill="url(#a)"
         id="path1283"
         style="fill:url(#linearGradient1475)" />
      <path
         transform="matrix(0.62535,0.21323,-0.19314,0.56645,399.97,-66.406)"
         d="m 441,591.36 a 7,16 0 1 1 -14,0 7,16 0 1 1 14,0 z"
         fill="#d2230e"
         id="path1285" />
      <path
         transform="matrix(0.54718,0.18657,-0.169,0.49565,419.81,-13.457)"
         d="m 441,591.36 a 7,16 0 1 1 -14,0 7,16 0 1 1 14,0 z"
         fill="#e2973a"
         id="path1287" />
      <path
         transform="matrix(5.1799,-0.41633,0.09557,0.60301,-2157.5,212.3)"
         d="m 513.97,590.85 a 0.216775,2.60136 0 1 1 -0.43355,0 0.216775,2.60136 0 1 1 0.43355,0 z"
         fill="#ffffff"
         id="path1289" />
      <path
         transform="matrix(4.864,-2.1366,0.24369,0.71499,-2088.8,1041.4)"
         d="m 513.97,590.85 a 0.216775,2.60136 0 1 1 -0.43355,0 0.216775,2.60136 0 1 1 0.43355,0 z"
         fill="#ce5c00"
         id="path1291" />
      <path
         transform="matrix(0.70787,0,0,0.63325,195.17,-68.47)"
         d="m 434,571.25 c -2.2405,0 -4.2172,1.0747 -5.5938,2.4062 -1.3766,1.3315 -2.3373,2.9495 -3.125,4.75 -1.5754,3.6009 -2.4062,8.0648 -2.4062,12.969 0,4.9042 0.83085,9.3678 2.4062,12.969 0.7877,1.8005 1.7485,3.4185 3.125,4.75 1.3765,1.3315 3.3532,2.4062 5.5938,2.4062 2.2406,0 4.2172,-1.0747 5.5938,-2.4062 1.3766,-1.3315 2.3373,-2.9495 3.125,-4.75 1.5754,-3.6009 2.4062,-8.0648 2.4062,-12.969 0,-4.9042 -0.83085,-9.3678 -2.4062,-12.969 -0.7877,-1.8005 -1.7485,-3.4185 -3.125,-4.75 C 438.2173,572.3247 436.2406,571.25 434,571.25 Z"
         fill="url(#a)"
         id="path1293"
         style="fill:url(#linearGradient1477)" />
      <path
         transform="matrix(0.70787,0,0,0.63325,195.11,-68.081)"
         d="m 441,591.36 a 7,16 0 1 1 -14,0 7,16 0 1 1 14,0 z"
         fill="#d2230e"
         id="path1295" />
      <path
         transform="matrix(0.61938,0,0,0.55409,233.54,-21.83)"
         d="m 441,591.36 a 7,16 0 1 1 -14,0 7,16 0 1 1 14,0 z"
         fill="#e2973a"
         id="path1297" />
      <path
         transform="matrix(5.1087,-2.1858,0.30541,0.57128,-2302,1084.4)"
         d="m 513.97,590.85 a 0.216775,2.60136 0 1 1 -0.43355,0 0.216775,2.60136 0 1 1 0.43355,0 z"
         fill="#ffffff"
         id="path1299" />
      <path
         transform="matrix(4.1936,-3.8007,0.49432,0.63284,-1945.6,1891.3)"
         d="m 513.97,590.85 a 0.216775,2.60136 0 1 1 -0.43355,0 0.216775,2.60136 0 1 1 0.43355,0 z"
         fill="#ce5c00"
         id="path1301" />
      <path
         transform="matrix(0.59776,0,0,0.66074,158.81,-61.018)"
         d="m 434,571.25 c -2.2405,0 -4.2172,1.0747 -5.5938,2.4062 -1.3766,1.3315 -2.3373,2.9495 -3.125,4.75 -1.5754,3.6009 -2.4062,8.0648 -2.4062,12.969 0,4.9042 0.83085,9.3678 2.4062,12.969 0.7877,1.8005 1.7485,3.4185 3.125,4.75 1.3765,1.3315 3.3532,2.4062 5.5938,2.4062 2.2406,0 4.2172,-1.0747 5.5938,-2.4062 1.3766,-1.3315 2.3373,-2.9495 3.125,-4.75 1.5754,-3.6009 2.4062,-8.0648 2.4062,-12.969 0,-4.9042 -0.83085,-9.3678 -2.4062,-12.969 -0.7877,-1.8005 -1.7485,-3.4185 -3.125,-4.75 C 438.2173,572.3247 436.2406,571.25 434,571.25 Z"
         fill="url(#a)"
         id="path1303"
         style="fill:url(#linearGradient1479)" />
      <path
         transform="matrix(0.59776,0,0,0.66074,158.76,-60.613)"
         d="m 441,591.36 a 7,16 0 1 1 -14,0 7,16 0 1 1 14,0 z"
         fill="#d2230e"
         id="path1305" />
      <path
         transform="matrix(0.52304,0,0,0.57815,191.22,-12.354)"
         d="m 441,591.36 a 7,16 0 1 1 -14,0 7,16 0 1 1 14,0 z"
         fill="#e2973a"
         id="path1307" />
      <path
         transform="matrix(4.3141,-2.2806,0.25791,0.59608,-1949.9,1141.9)"
         d="m 513.97,590.85 a 0.216775,2.60136 0 1 1 -0.43355,0 0.216775,2.60136 0 1 1 0.43355,0 z"
         fill="#ffffff"
         id="path1309" />
      <path
         transform="matrix(3.5413,-3.9657,0.41744,0.66031,-1649,1983.8)"
         d="m 513.97,590.85 a 0.216775,2.60136 0 1 1 -0.43355,0 0.216775,2.60136 0 1 1 0.43355,0 z"
         fill="#ce5c00"
         id="path1311" />
      <path
         transform="matrix(0.51931,-0.13208,0.18166,0.57645,55.746,79.158)"
         d="m 434,571.25 c -2.2405,0 -4.2172,1.0747 -5.5938,2.4062 -1.3766,1.3315 -2.3373,2.9495 -3.125,4.75 -1.5754,3.6009 -2.4062,8.0648 -2.4062,12.969 0,4.9042 0.83085,9.3678 2.4062,12.969 0.7877,1.8005 1.7485,3.4185 3.125,4.75 1.3765,1.3315 3.3532,2.4062 5.5938,2.4062 2.2406,0 4.2172,-1.0747 5.5938,-2.4062 1.3766,-1.3315 2.3373,-2.9495 3.125,-4.75 1.5754,-3.6009 2.4062,-8.0648 2.4062,-12.969 0,-4.9042 -0.83085,-9.3678 -2.4062,-12.969 -0.7877,-1.8005 -1.7485,-3.4185 -3.125,-4.75 C 438.2173,572.3247 436.2406,571.25 434,571.25 Z"
         fill="url(#a)"
         id="path1313"
         style="fill:url(#linearGradient1481)" />
      <path
         transform="matrix(0.51931,-0.13208,0.18166,0.57645,55.813,79.524)"
         d="m 441,591.36 a 7,16 0 1 1 -14,0 7,16 0 1 1 14,0 z"
         fill="#d2230e"
         id="path1315" />
      <path
         transform="matrix(0.45439,-0.11557,0.15895,0.50439,97.275,114.46)"
         d="m 441,591.36 a 7,16 0 1 1 -14,0 7,16 0 1 1 14,0 z"
         fill="#e2973a"
         id="path1317" />
      <path
         transform="matrix(3.1209,-2.9429,0.38794,0.46305,-1445.5,1594.5)"
         d="m 513.97,590.85 a 0.216775,2.60136 0 1 1 -0.43355,0 0.216775,2.60136 0 1 1 0.43355,0 z"
         fill="#ffffff"
         id="path1319" />
      <path
         transform="matrix(1.9862,-4.2423,0.54419,0.48384,-952.57,2262.6)"
         d="m 513.97,590.85 a 0.216775,2.60136 0 1 1 -0.43355,0 0.216775,2.60136 0 1 1 0.43355,0 z"
         fill="#ce5c00"
         id="path1321" />
      <path
         transform="matrix(0.48763,-0.13257,0.15279,0.56197,267.44,30.707)"
         d="m 434,571.25 c -2.2405,0 -4.2172,1.0747 -5.5938,2.4062 -1.3766,1.3315 -2.3373,2.9495 -3.125,4.75 -1.5754,3.6009 -2.4062,8.0648 -2.4062,12.969 0,4.9042 0.83085,9.3678 2.4062,12.969 0.7877,1.8005 1.7485,3.4185 3.125,4.75 1.3765,1.3315 3.3532,2.4062 5.5938,2.4062 2.2406,0 4.2172,-1.0747 5.5938,-2.4062 1.3766,-1.3315 2.3373,-2.9495 3.125,-4.75 1.5754,-3.6009 2.4062,-8.0648 2.4062,-12.969 0,-4.9042 -0.83085,-9.3678 -2.4062,-12.969 -0.7877,-1.8005 -1.7485,-3.4185 -3.125,-4.75 C 438.2173,572.3247 436.2406,571.25 434,571.25 Z"
         fill="url(#a)"
         id="path1323"
         style="fill:url(#linearGradient1483)" />
      <path
         transform="matrix(0.48763,-0.13257,0.15279,0.56197,267.5,31.064)"
         d="m 441,591.36 a 7,16 0 1 1 -14,0 7,16 0 1 1 14,0 z"
         fill="#d2230e"
         id="path1325" />
      <path
         transform="matrix(0.42667,-0.116,0.13369,0.49172,305.13,64.911)"
         d="m 441,591.36 a 7,16 0 1 1 -14,0 7,16 0 1 1 14,0 z"
         fill="#e2973a"
         id="path1327" />
      <path
         transform="matrix(2.9919,-2.8965,0.34822,0.44977,-1174.6,1521.5)"
         d="m 513.97,590.85 a 0.216775,2.60136 0 1 1 -0.43355,0 0.216775,2.60136 0 1 1 0.43355,0 z"
         fill="#ffffff"
         id="path1329" />
      <path
         transform="matrix(1.9718,-4.1583,0.49321,0.46903,-734.42,2170.8)"
         d="m 513.97,590.85 a 0.216775,2.60136 0 1 1 -0.43355,0 0.216775,2.60136 0 1 1 0.43355,0 z"
         fill="#ce5c00"
         id="path1331" />
      <path
         transform="matrix(0.49145,-0.14627,0.17191,0.6384,121.54,113.43)"
         d="m 434,571.25 c -2.2405,0 -4.2172,1.0747 -5.5938,2.4062 -1.3766,1.3315 -2.3373,2.9495 -3.125,4.75 -1.5754,3.6009 -2.4062,8.0648 -2.4062,12.969 0,4.9042 0.83085,9.3678 2.4062,12.969 0.7877,1.8005 1.7485,3.4185 3.125,4.75 1.3765,1.3315 3.3532,2.4062 5.5938,2.4062 2.2406,0 4.2172,-1.0747 5.5938,-2.4062 1.3766,-1.3315 2.3373,-2.9495 3.125,-4.75 1.5754,-3.6009 2.4062,-8.0648 2.4062,-12.969 0,-4.9042 -0.83085,-9.3678 -2.4062,-12.969 -0.7877,-1.8005 -1.7485,-3.4185 -3.125,-4.75 C 438.2173,572.3247 436.2406,571.25 434,571.25 Z"
         fill="url(#a)"
         id="path1333"
         style="fill:url(#linearGradient1485)" />
      <path
         transform="matrix(0.49145,-0.14627,0.17191,0.6384,121.6,113.84)"
         d="m 441,591.36 a 7,16 0 1 1 -14,0 7,16 0 1 1 14,0 z"
         fill="#d2230e"
         id="path1335" />
      <path
         transform="matrix(0.43002,-0.12799,0.15042,0.5586,160.84,152.52)"
         d="m 441,591.36 a 7,16 0 1 1 -14,0 7,16 0 1 1 14,0 z"
         fill="#e2973a"
         id="path1337" />
      <path
         transform="matrix(2.9534,-3.2592,0.36713,0.51281,-1299.2,1791.6)"
         d="m 513.97,590.85 a 0.216775,2.60136 0 1 1 -0.43355,0 0.216775,2.60136 0 1 1 0.43355,0 z"
         fill="#ffffff"
         id="path1339" />
      <path
         transform="matrix(1.8797,-4.6982,0.51499,0.53584,-832.69,2531.5)"
         d="m 513.97,590.85 a 0.216775,2.60136 0 1 1 -0.43355,0 0.216775,2.60136 0 1 1 0.43355,0 z"
         fill="#ce5c00"
         id="path1341" />
      <path
         transform="matrix(0.43359,0.19801,-0.1891,0.55472,308.62,-111.51)"
         d="m 434,571.25 c -2.2405,0 -4.2172,1.0747 -5.5938,2.4062 -1.3766,1.3315 -2.3373,2.9495 -3.125,4.75 -1.5754,3.6009 -2.4062,8.0648 -2.4062,12.969 0,4.9042 0.83085,9.3678 2.4062,12.969 0.7877,1.8005 1.7485,3.4185 3.125,4.75 1.3765,1.3315 3.3532,2.4062 5.5938,2.4062 2.2406,0 4.2172,-1.0747 5.5938,-2.4062 1.3766,-1.3315 2.3373,-2.9495 3.125,-4.75 1.5754,-3.6009 2.4062,-8.0648 2.4062,-12.969 0,-4.9042 -0.83085,-9.3678 -2.4062,-12.969 -0.7877,-1.8005 -1.7485,-3.4185 -3.125,-4.75 C 438.2173,572.3247 436.2406,571.25 434,571.25 Z"
         fill="url(#a)"
         id="path1343"
         style="fill:url(#linearGradient1487)" />
      <path
         transform="matrix(0.43359,0.19801,-0.1891,0.55472,308.47,-111.19)"
         d="m 441,591.36 a 7,16 0 1 1 -14,0 7,16 0 1 1 14,0 z"
         fill="#d2230e"
         id="path1345" />
      <path
         transform="matrix(0.37939,0.17326,-0.16547,0.48538,318.2,-59.919)"
         d="m 441,591.36 a 7,16 0 1 1 -14,0 7,16 0 1 1 14,0 z"
         fill="#e2973a"
         id="path1347" />
      <path
         transform="matrix(3.782,-0.48563,0.01648,0.58587,-1565.2,199.84)"
         d="m 513.97,590.85 a 0.216775,2.60136 0 1 1 -0.43355,0 0.216775,2.60136 0 1 1 0.43355,0 z"
         fill="#ffffff"
         id="path1349" />
      <path
         transform="matrix(3.7037,-2.1563,0.11381,0.69264,-1587.9,1006.4)"
         d="m 513.97,590.85 a 0.216775,2.60136 0 1 1 -0.43355,0 0.216775,2.60136 0 1 1 0.43355,0 z"
         fill="#ce5c00"
         id="path1351" />
      <path
         transform="matrix(0.41291,0.15638,-0.1325,0.64724,494.48,-108.7)"
         d="m 434,571.25 c -2.2405,0 -4.2172,1.0747 -5.5938,2.4062 -1.3766,1.3315 -2.3373,2.9495 -3.125,4.75 -1.5754,3.6009 -2.4062,8.0648 -2.4062,12.969 0,4.9042 0.83085,9.3678 2.4062,12.969 0.7877,1.8005 1.7485,3.4185 3.125,4.75 1.3765,1.3315 3.3532,2.4062 5.5938,2.4062 2.2406,0 4.2172,-1.0747 5.5938,-2.4062 1.3766,-1.3315 2.3373,-2.9495 3.125,-4.75 1.5754,-3.6009 2.4062,-8.0648 2.4062,-12.969 0,-4.9042 -0.83085,-9.3678 -2.4062,-12.969 -0.7877,-1.8005 -1.7485,-3.4185 -3.125,-4.75 C 438.2173,572.3247 436.2406,571.25 434,571.25 Z"
         fill="url(#a)"
         id="path1353"
         style="fill:url(#linearGradient1489)" />
      <path
         transform="matrix(0.41291,0.15638,-0.1325,0.64724,494.36,-108.31)"
         d="m 441,591.36 a 7,16 0 1 1 -14,0 7,16 0 1 1 14,0 z"
         fill="#d2230e"
         id="path1355" />
      <path
         transform="matrix(0.3613,0.13683,-0.11594,0.56633,507.1,-52.552)"
         d="m 441,591.36 a 7,16 0 1 1 -14,0 7,16 0 1 1 14,0 z"
         fill="#e2973a"
         id="path1357" />
      <path
         transform="matrix(3.4374,-1.1054,0.05862,0.65136,-1203.4,517.94)"
         d="m 513.97,590.85 a 0.216775,2.60136 0 1 1 -0.43355,0 0.216775,2.60136 0 1 1 0.43355,0 z"
         fill="#ffffff"
         id="path1359" />
      <path
         transform="matrix(3.2415,-2.9582,0.15593,0.75602,-1164.3,1421.4)"
         d="m 513.97,590.85 a 0.216775,2.60136 0 1 1 -0.43355,0 0.216775,2.60136 0 1 1 0.43355,0 z"
         fill="#ce5c00"
         id="path1361" />
      <path
         transform="matrix(0.59292,0.24323,-0.21794,0.59449,412.26,-1.2205)"
         d="m 434,571.25 c -2.2405,0 -4.2172,1.0747 -5.5938,2.4062 -1.3766,1.3315 -2.3373,2.9495 -3.125,4.75 -1.5754,3.6009 -2.4062,8.0648 -2.4062,12.969 0,4.9042 0.83085,9.3678 2.4062,12.969 0.7877,1.8005 1.7485,3.4185 3.125,4.75 1.3765,1.3315 3.3532,2.4062 5.5938,2.4062 2.2406,0 4.2172,-1.0747 5.5938,-2.4062 1.3766,-1.3315 2.3373,-2.9495 3.125,-4.75 1.5754,-3.6009 2.4062,-8.0648 2.4062,-12.969 0,-4.9042 -0.83085,-9.3678 -2.4062,-12.969 -0.7877,-1.8005 -1.7485,-3.4185 -3.125,-4.75 C 438.2173,572.3247 436.2406,571.25 434,571.25 Z"
         fill="url(#a)"
         id="path1363"
         style="fill:url(#linearGradient1491)" />
      <path
         transform="matrix(0.59292,0.24323,-0.21794,0.59449,412.08,-0.87635)"
         d="m 441,591.36 a 7,16 0 1 1 -14,0 7,16 0 1 1 14,0 z"
         fill="#d2230e"
         id="path1365" />
      <path
         transform="matrix(0.51881,0.21282,-0.1907,0.52018,428.35,55.749)"
         d="m 441,591.36 a 7,16 0 1 1 -14,0 7,16 0 1 1 14,0 z"
         fill="#e2973a"
         id="path1367" />
      <path
         transform="matrix(5.0314,-0.29661,0.05921,0.64125,-2076.1,223.04)"
         d="m 513.97,590.85 a 0.216775,2.60136 0 1 1 -0.43355,0 0.216775,2.60136 0 1 1 0.43355,0 z"
         fill="#ffffff"
         id="path1369" />
      <path
         transform="matrix(4.8207,-2.1272,0.19626,0.76396,-2055.3,1103)"
         d="m 513.97,590.85 a 0.216775,2.60136 0 1 1 -0.43355,0 0.216775,2.60136 0 1 1 0.43355,0 z"
         fill="#ce5c00"
         id="path1371" />
      <path
         transform="matrix(0.51826,0.17671,-0.16007,0.46945,434.68,43.477)"
         d="m 434,571.25 c -2.2405,0 -4.2172,1.0747 -5.5938,2.4062 -1.3766,1.3315 -2.3373,2.9495 -3.125,4.75 -1.5754,3.6009 -2.4062,8.0648 -2.4062,12.969 0,4.9042 0.83085,9.3678 2.4062,12.969 0.7877,1.8005 1.7485,3.4185 3.125,4.75 1.3765,1.3315 3.3532,2.4062 5.5938,2.4062 2.2406,0 4.2172,-1.0747 5.5938,-2.4062 1.3766,-1.3315 2.3373,-2.9495 3.125,-4.75 1.5754,-3.6009 2.4062,-8.0648 2.4062,-12.969 0,-4.9042 -0.83085,-9.3678 -2.4062,-12.969 -0.7877,-1.8005 -1.7485,-3.4185 -3.125,-4.75 C 438.2173,572.3247 436.2406,571.25 434,571.25 Z"
         fill="url(#a)"
         id="path1373"
         style="fill:url(#linearGradient1493)" />
      <path
         transform="matrix(0.51826,0.17671,-0.16007,0.46945,434.53,43.75)"
         d="m 441,591.36 a 7,16 0 1 1 -14,0 7,16 0 1 1 14,0 z"
         fill="#d2230e"
         id="path1375" />
      <path
         transform="matrix(0.45348,0.15462,-0.14006,0.41077,450.98,87.631)"
         d="m 441,591.36 a 7,16 0 1 1 -14,0 7,16 0 1 1 14,0 z"
         fill="#e2973a"
         id="path1377" />
      <path
         transform="matrix(4.2928,-0.34503,0.07921,0.49975,-1685,274.73)"
         d="m 513.97,590.85 a 0.216775,2.60136 0 1 1 -0.43355,0 0.216775,2.60136 0 1 1 0.43355,0 z"
         fill="#ffffff"
         id="path1379" />
      <path
         transform="matrix(4.031,-1.7707,0.20196,0.59255,-1628,961.88)"
         d="m 513.97,590.85 a 0.216775,2.60136 0 1 1 -0.43355,0 0.216775,2.60136 0 1 1 0.43355,0 z"
         fill="#ce5c00"
         id="path1381" />
      <path
         transform="matrix(0.37403,0.26155,-0.31096,0.44469,473.26,-83.892)"
         d="m 434,571.25 c -2.2405,0 -4.2172,1.0747 -5.5938,2.4062 -1.3766,1.3315 -2.3373,2.9495 -3.125,4.75 -1.5754,3.6009 -2.4062,8.0648 -2.4062,12.969 0,4.9042 0.83085,9.3678 2.4062,12.969 0.7877,1.8005 1.7485,3.4185 3.125,4.75 1.3765,1.3315 3.3532,2.4062 5.5938,2.4062 2.2406,0 4.2172,-1.0747 5.5938,-2.4062 1.3766,-1.3315 2.3373,-2.9495 3.125,-4.75 1.5754,-3.6009 2.4062,-8.0648 2.4062,-12.969 0,-4.9042 -0.83085,-9.3678 -2.4062,-12.969 -0.7877,-1.8005 -1.7485,-3.4185 -3.125,-4.75 C 438.2173,572.3247 436.2406,571.25 434,571.25 Z"
         fill="url(#a)"
         id="path1383"
         style="fill:url(#linearGradient1495)" />
      <path
         transform="matrix(0.37403,0.26155,-0.31096,0.44469,473.04,-83.641)"
         d="m 441,591.36 a 7,16 0 1 1 -14,0 7,16 0 1 1 14,0 z"
         fill="#d2230e"
         id="path1385" />
      <path
         transform="matrix(0.32728,0.22885,-0.27209,0.38911,470.64,-36.962)"
         d="m 441,591.36 a 7,16 0 1 1 -14,0 7,16 0 1 1 14,0 z"
         fill="#e2973a"
         id="path1387" />
      <path
         transform="matrix(3.7727,0.35268,-0.11915,0.51402,-1412.3,-196.98)"
         d="m 513.97,590.85 a 0.216775,2.60136 0 1 1 -0.43355,0 0.216775,2.60136 0 1 1 0.43355,0 z"
         fill="#ffffff"
         id="path1389" />
      <path
         transform="matrix(4.0822,-1.1195,-0.04956,0.62705,-1620.2,501.33)"
         d="m 513.97,590.85 a 0.216775,2.60136 0 1 1 -0.43355,0 0.216775,2.60136 0 1 1 0.43355,0 z"
         fill="#ce5c00"
         id="path1391" />
      <path
         transform="matrix(0.47915,0.27573,-0.32955,0.57269,402.68,-181.61)"
         d="m 434,571.25 c -2.2405,0 -4.2172,1.0747 -5.5938,2.4062 -1.3766,1.3315 -2.3373,2.9495 -3.125,4.75 -1.5754,3.6009 -2.4062,8.0648 -2.4062,12.969 0,4.9042 0.83085,9.3678 2.4062,12.969 0.7877,1.8005 1.7485,3.4185 3.125,4.75 1.3765,1.3315 3.3532,2.4062 5.5938,2.4062 2.2406,0 4.2172,-1.0747 5.5938,-2.4062 1.3766,-1.3315 2.3373,-2.9495 3.125,-4.75 1.5754,-3.6009 2.4062,-8.0648 2.4062,-12.969 0,-4.9042 -0.83085,-9.3678 -2.4062,-12.969 -0.7877,-1.8005 -1.7485,-3.4185 -3.125,-4.75 C 438.2173,572.3247 436.2406,571.25 434,571.25 Z"
         fill="url(#a)"
         id="path1393"
         style="fill:url(#linearGradient1497)" />
      <path
         transform="matrix(0.47915,0.27573,-0.32955,0.57269,402.44,-181.28)"
         d="m 441,591.36 a 7,16 0 1 1 -14,0 7,16 0 1 1 14,0 z"
         fill="#d2230e"
         id="path1395" />
      <path
         transform="matrix(0.41926,0.24126,-0.28836,0.5011,404.38,-124.49)"
         d="m 441,591.36 a 7,16 0 1 1 -14,0 7,16 0 1 1 14,0 z"
         fill="#e2973a"
         id="path1397" />
      <path
         transform="matrix(4.5956,0.01321,-0.09057,0.63561,-1887.6,-111.7)"
         d="m 513.97,590.85 a 0.216775,2.60136 0 1 1 -0.43355,0 0.216775,2.60136 0 1 1 0.43355,0 z"
         fill="#ffffff"
         id="path1399" />
      <path
         transform="matrix(4.8166,-1.8038,0.00527,0.76487,-2066.3,756.85)"
         d="m 513.97,590.85 a 0.216775,2.60136 0 1 1 -0.43355,0 0.216775,2.60136 0 1 1 0.43355,0 z"
         fill="#ce5c00"
         id="path1401" />
      <path
         transform="matrix(0.36924,-0.13208,0.12916,0.57645,168.92,111.16)"
         d="m 434,571.25 c -2.2405,0 -4.2172,1.0747 -5.5938,2.4062 -1.3766,1.3315 -2.3373,2.9495 -3.125,4.75 -1.5754,3.6009 -2.4062,8.0648 -2.4062,12.969 0,4.9042 0.83085,9.3678 2.4062,12.969 0.7877,1.8005 1.7485,3.4185 3.125,4.75 1.3765,1.3315 3.3532,2.4062 5.5938,2.4062 2.2406,0 4.2172,-1.0747 5.5938,-2.4062 1.3766,-1.3315 2.3373,-2.9495 3.125,-4.75 1.5754,-3.6009 2.4062,-8.0648 2.4062,-12.969 0,-4.9042 -0.83085,-9.3678 -2.4062,-12.969 -0.7877,-1.8005 -1.7485,-3.4185 -3.125,-4.75 C 438.2173,572.3247 436.2406,571.25 434,571.25 Z"
         fill="url(#a)"
         id="path1403"
         style="fill:url(#linearGradient1499)" />
      <path
         transform="matrix(0.36924,-0.13208,0.12916,0.57645,168.97,111.52)"
         d="m 441,591.36 a 7,16 0 1 1 -14,0 7,16 0 1 1 14,0 z"
         fill="#d2230e"
         id="path1405" />
      <path
         transform="matrix(0.32308,-0.11557,0.11302,0.50439,198.45,146.46)"
         d="m 441,591.36 a 7,16 0 1 1 -14,0 7,16 0 1 1 14,0 z"
         fill="#e2973a"
         id="path1407" />
      <path
         transform="matrix(2.219,-2.9429,0.27583,0.46305,-898.49,1626.5)"
         d="m 513.97,590.85 a 0.216775,2.60136 0 1 1 -0.43355,0 0.216775,2.60136 0 1 1 0.43355,0 z"
         fill="#ffffff"
         id="path1409" />
      <path
         transform="matrix(1.4122,-4.2423,0.38693,0.48384,-548.01,2294.6)"
         d="m 513.97,590.85 a 0.216775,2.60136 0 1 1 -0.43355,0 0.216775,2.60136 0 1 1 0.43355,0 z"
         fill="#ce5c00"
         id="path1411" />
      <path
         transform="matrix(0.42881,-0.22596,0.23105,0.59829,128.09,212.89)"
         d="m 434,571.25 c -2.2405,0 -4.2172,1.0747 -5.5938,2.4062 -1.3766,1.3315 -2.3373,2.9495 -3.125,4.75 -1.5754,3.6009 -2.4062,8.0648 -2.4062,12.969 0,4.9042 0.83085,9.3678 2.4062,12.969 0.7877,1.8005 1.7485,3.4185 3.125,4.75 1.3765,1.3315 3.3532,2.4062 5.5938,2.4062 2.2406,0 4.2172,-1.0747 5.5938,-2.4062 1.3766,-1.3315 2.3373,-2.9495 3.125,-4.75 1.5754,-3.6009 2.4062,-8.0648 2.4062,-12.969 0,-4.9042 -0.83085,-9.3678 -2.4062,-12.969 -0.7877,-1.8005 -1.7485,-3.4185 -3.125,-4.75 C 438.2173,572.3247 436.2406,571.25 434,571.25 Z"
         fill="url(#a)"
         id="path1413"
         style="fill:url(#linearGradient1501)" />
      <path
         transform="matrix(0.42881,-0.22596,0.23105,0.59829,128.19,213.28)"
         d="m 441,591.36 a 7,16 0 1 1 -14,0 7,16 0 1 1 14,0 z"
         fill="#d2230e"
         id="path1415" />
      <path
         transform="matrix(0.37521,-0.19771,0.20217,0.5235,168.35,244.71)"
         d="m 441,591.36 a 7,16 0 1 1 -14,0 7,16 0 1 1 14,0 z"
         fill="#e2973a"
         id="path1417" />
      <path
         transform="matrix(2.2972,-3.6958,0.39345,0.44224,-963.99,2099.2)"
         d="m 513.97,590.85 a 0.216775,2.60136 0 1 1 -0.43355,0 0.216775,2.60136 0 1 1 0.43355,0 z"
         fill="#ffffff"
         id="path1419" />
      <path
         transform="matrix(1.1537,-4.9295,0.53035,0.4401,-453.71,2747.8)"
         d="m 513.97,590.85 a 0.216775,2.60136 0 1 1 -0.43355,0 0.216775,2.60136 0 1 1 0.43355,0 z"
         fill="#ce5c00"
         id="path1421" />
      <path
         d="m 547.14,262.81 c -59.941,3.3864 -96.911,-19.609 -134.76,-5.3108 -16.735,6.322 -35.489,24.992 -43.15,41.158 -8.9806,18.952 -10.899,49.49 -5.3108,69.704 6.4339,23.274 31.783,46.553 46.469,65.721 17.462,22.792 34.991,61.684 61.074,73.687 11.218,5.1625 30.298,5.2152 41.158,-0.66384 22.199,-12.017 35.248,-47.434 47.133,-69.704 16.193,-30.343 42.105,-71.837 43.15,-106.22 0.56819,-18.696 -6.2253,-46.337 -19.915,-59.082 -8.1314,-7.5703 -24.755,-9.9205 -35.848,-9.2938 z"
         fill="url(#i)"
         fill-rule="evenodd"
         opacity="0.54577"
         id="path1423"
         style="fill:url(#i)" />
      <path
         d="m 445.77,249.31 c -9.725,-0.0922 -19.132,1.1442 -28.594,4.7188 -2.2246,0.84039 -4.4848,1.9144 -6.75,3.1562 62.154,13.87 123.84,73.079 145.53,143.94 3.7645,12.297 6.1005,24.237 7.125,35.656 0.49044,-0.95214 0.98275,-1.9331 1.4688,-2.8438 16.193,-30.343 42.111,-71.841 43.156,-106.22 0.56819,-18.696 -6.2162,-46.317 -19.906,-59.062 -8.1313,-7.5703 -24.783,-9.9392 -35.875,-9.3125 -44.956,2.5398 -76.981,-9.7546 -106.16,-10.031 z"
         fill="url(#m)"
         fill-rule="evenodd"
         opacity="0.54577"
         id="path1425"
         style="fill:url(#m)" />
      <path
         d="m 550.61,256.52 c -59.941,3.3864 -96.911,-19.609 -134.76,-5.3108 -16.735,6.322 -35.489,24.992 -43.15,41.158 -8.9806,18.952 -10.899,49.49 -5.3108,69.704 6.4339,23.274 31.783,46.553 46.469,65.721 17.462,22.792 34.991,61.684 61.074,73.687 11.218,5.1625 30.298,5.2152 41.158,-0.66384 22.199,-12.017 35.248,-47.434 47.133,-69.704 16.193,-30.343 42.105,-71.837 43.15,-106.22 0.5682,-18.696 -6.2254,-46.337 -19.915,-59.082 -8.1313,-7.5703 -24.755,-9.9205 -35.848,-9.2938 z"
         fill="url(#l)"
         fill-rule="evenodd"
         opacity="0.54577"
         id="path1427"
         style="fill:url(#l)" />
      <path
         d="m 445.88,249.94 c -9.725,-0.0922 -19.132,1.1442 -28.594,4.7188 -7.2345,2.733 -14.851,7.7579 -21.781,13.906 5.1843,1.1942 11.603,1.5734 20.156,0.59375 23.073,-2.6425 36.619,-4.2273 45.188,-5.5 l -0.15625,0.25 c -8.9208,14.079 -1.8159,11.667 4.625,24.531 13.858,-4.4488 20.601,4.8135 27.5,-8.75 3.7665,-7.4018 6.1517,-12.429 7.5625,-16.062 3.2005,2.784 10.119,7.2669 13.469,16.969 5.197,15.051 7.9014,8.3704 22.094,11.469 4.9108,-11.439 14.673,-12.118 12.375,-21.562 7.1943,0.32226 15.633,0.62071 26.062,0.90625 5.773,0.15805 10.755,-0.0521 15.125,-0.5625 -0.52205,-0.55184 -1.0499,-1.0874 -1.5938,-1.5938 -8.1314,-7.5703 -24.783,-9.9079 -35.875,-9.2812 -44.956,2.5398 -76.981,-9.7546 -106.16,-10.031 z"
         fill="#2e3436"
         opacity="0.54577"
         id="path1429" />
      <path
         d="m 489.05,253.16 c 2.1092,-14.401 13.417,-16.378 4.2785,-28.546 -22.62,-30.128 -15.445,-14.713 -29.831,-14.596 -2.1092,14.401 -16.955,6.3781 1.5076,36.496 8.7109,14.21 9.6592,6.7628 24.045,6.646 z"
         fill="url(#h)"
         id="path1431"
         style="fill:url(#h)" />
      <path
         d="m 497.83,161.16 -6.3125,3.0625 c 11.54,21.92 -0.74999,74.969 -0.75,74.969 l -35.406,16.969 c 0,0 4.7899,0.17593 8.5938,0.3125 l 32.469,-16.625 c 10e-6,-1e-5 11.831,-54.493 1.4062,-78.688 z"
         fill="url(#k)"
         fill-rule="evenodd"
         id="path1433"
         style="fill:url(#k)" />
      <path
         d="m 626.3,236.94 c -19.167,-7.0617 -11.581,5.5636 -42.462,5.7213 -18.664,0.0953 -31.416,-5.3009 -40.842,-2.7228 -20.547,5.6197 -27.694,9.4154 -42.182,15.55 19.167,7.0617 6.9442,9.5524 77.791,11.492 33.426,0.9151 32.528,-16.424 47.695,-30.041 z"
         fill="url(#d)"
         id="path1435"
         style="fill:url(#d)" />
      <path
         d="m 365.53,245.58 c 18.484,-8.6942 17.798,1.3271 48.576,-1.1881 76.2,-6.2307 57.465,-1.2759 77.263,5.1511 -18.484,8.6942 -18.844,-1.4545 -70.358,14.682 -31.909,9.9956 -35.683,-12.218 -55.481,-18.646 z"
         fill="url(#f)"
         id="path1437"
         style="fill:url(#f)" />
      <path
         d="m 469.53,283.99 c 13.858,-4.4488 20.614,4.8321 27.513,-8.7314 17.086,-33.578 6.4062,-20.346 -0.0347,-33.211 -13.858,4.4488 -13.194,-12.413 -32.102,17.427 -8.9208,14.079 -1.8174,11.65 4.6235,24.515 z"
         fill="url(#g)"
         id="path1439"
         style="fill:url(#g)" />
      <path
         d="m 540.16,287.63 c 5.5018,-12.816 17.106,-12.121 11.002,-25.383 -15.106,-32.838 -28.208,-15.516 -42.401,-18.614 -2.6796,7.209 -2.589,8.4741 -5.6207,12.567 -2.1404,2.8893 10.106,5.9838 14.925,19.941 5.1971,15.051 7.902,8.3921 22.094,11.49 z"
         fill="url(#e)"
         id="path1441"
         style="fill:url(#e)" />
      <path
         transform="matrix(0.5294,0.29247,-0.26814,0.50943,449.38,-88.935)"
         d="m 434,571.25 c -2.2405,0 -4.2172,1.0747 -5.5938,2.4062 -1.3766,1.3315 -2.3373,2.9495 -3.125,4.75 -1.5754,3.6009 -2.4062,8.0648 -2.4062,12.969 0,4.9042 0.83085,9.3678 2.4062,12.969 0.7877,1.8005 1.7485,3.4185 3.125,4.75 1.3765,1.3315 3.3532,2.4062 5.5938,2.4062 2.2406,0 4.2172,-1.0747 5.5938,-2.4062 1.3766,-1.3315 2.3373,-2.9495 3.125,-4.75 1.5754,-3.6009 2.4062,-8.0648 2.4062,-12.969 0,-4.9042 -0.83085,-9.3678 -2.4062,-12.969 -0.7877,-1.8005 -1.7485,-3.4185 -3.125,-4.75 C 438.2173,572.3247 436.2406,571.25 434,571.25 Z"
         fill="url(#a)"
         id="path1443"
         style="fill:url(#linearGradient1503)" />
      <path
         transform="matrix(0.5294,0.29247,-0.26814,0.50943,449.17,-88.647)"
         d="m 441,591.36 a 7,16 0 1 1 -14,0 7,16 0 1 1 14,0 z"
         fill="#d2230e"
         id="path1445" />
      <path
         transform="matrix(0.46322,0.25591,-0.23463,0.44575,458.33,-35.561)"
         d="m 441,591.36 a 7,16 0 1 1 -14,0 7,16 0 1 1 14,0 z"
         fill="#e2973a"
         id="path1447" />
      <path
         transform="matrix(4.7462,0.35242,-0.01349,0.58576,-1906.3,-193.27)"
         d="m 513.97,590.85 a 0.216775,2.60136 0 1 1 -0.43355,0 0.216775,2.60136 0 1 1 0.43355,0 z"
         fill="#ffffff"
         id="path1449" />
      <path
         transform="matrix(4.7457,-1.3248,0.10172,0.71334,-1981.5,603.11)"
         d="m 513.97,590.85 a 0.216775,2.60136 0 1 1 -0.43355,0 0.216775,2.60136 0 1 1 0.43355,0 z"
         fill="#ce5c00"
         id="path1451" />
    </g>
  </g>
</svg>
